<svg width="1074" height="1074" viewBox="0 0 1074 1074" fill="none" xmlns="http://www.w3.org/2000/svg">
<rect x="14" y="28.0002" width="1033" height="1000" rx="15" fill="#111111"/>
<g filter="url(#filter0_d_1295_627)">
<line y1="-0.5" x2="891.549" y2="-0.5" transform="matrix(0.975715 0.219045 0.652051 0.758175 101.536 439.474)" stroke="white"/>
<line y1="-0.5" x2="943.16" y2="-0.5" transform="matrix(0.965469 0.26052 0.601166 0.799124 81.1904 414.261)" stroke="white"/>
<line y1="-0.5" x2="834.987" y2="-0.5" transform="matrix(0.985146 0.171716 0.693161 0.720783 125.191 465.426)" stroke="white"/>
<line y1="-0.5" x2="989.139" y2="-0.5" transform="matrix(0.954723 0.297495 0.53669 0.843779 64.3091 389.988)" stroke="white"/>
<line y1="-0.5" x2="1028.93" y2="-0.5" transform="matrix(0.943631 0.331 0.453114 0.891453 51.02 366.828)" stroke="white"/>
<line y1="-0.5" x2="581.839" y2="-0.5" transform="matrix(0.992924 -0.118753 0.801249 0.59833 247.625 571.667)" stroke="white"/>
<line y1="-0.5" x2="647.461" y2="-0.5" transform="matrix(0.999723 -0.0235492 0.77957 0.626315 212.842 544.741)" stroke="white"/>
<line y1="-0.5" x2="518.427" y2="-0.5" transform="matrix(0.971721 -0.236131 0.820526 0.571609 284.603 598.326)" stroke="white"/>
<line y1="-0.5" x2="712.967" y2="-0.5" transform="matrix(0.998524 0.0543036 0.75479 0.655967 180.525 517.758)" stroke="white"/>
<line y1="-0.5" x2="776.644" y2="-0.5" transform="matrix(0.9929 0.118955 0.725958 0.687739 150.922 490.924)" stroke="white"/>
</g>
<g filter="url(#filter1_d_1295_627)">
<line y1="-0.5" x2="891.549" y2="-0.5" transform="matrix(-0.80703 0.590511 -0.999968 -0.00798279 896.358 272.945)" stroke="white"/>
<line y1="-0.5" x2="943.16" y2="-0.5" transform="matrix(-0.831515 0.555502 -0.997314 -0.0732444 928.731 274.218)" stroke="white"/>
<line y1="-0.5" x2="834.987" y2="-0.5" transform="matrix(-0.777601 0.628759 -0.998868 0.0475784 861.25 273.677)" stroke="white"/>
<line y1="-0.5" x2="989.139" y2="-0.5" transform="matrix(-0.852284 0.523079 -0.988507 -0.151178 958.118 277.48)" stroke="white"/>
<line y1="-0.5" x2="1028.93" y2="-0.5" transform="matrix(-0.870212 0.492677 -0.969402 -0.245479 984.302 282.716)" stroke="white"/>
<line y1="-0.5" x2="581.839" y2="-0.5" transform="matrix(-0.564011 0.825767 -0.977799 0.209547 700.686 295.949)" stroke="white"/>
<line y1="-0.5" x2="647.461" y2="-0.5" transform="matrix(-0.640169 0.768234 -0.984603 0.174807 743.848 287.478)" stroke="white"/>
<line y1="-0.5" x2="518.427" y2="-0.5" transform="matrix(-0.461678 0.887047 -0.970365 0.241646 656.278 306.247)" stroke="white"/>
<line y1="-0.5" x2="712.967" y2="-0.5" transform="matrix(-0.697999 0.716099 -0.990621 0.136636 785.432 280.902)" stroke="white"/>
<line y1="-0.5" x2="776.644" y2="-0.5" transform="matrix(-0.742976 0.669318 -0.99557 0.0940187 825.119 276.271)" stroke="white"/>
</g>
<g filter="url(#filter2_d_1295_627)">
<line y1="-0.5" x2="891.549" y2="-0.5" transform="matrix(0.536357 0.843991 -0.0734935 0.997296 297.587 160.532)" stroke="white"/>
<line y1="-0.5" x2="943.16" y2="-0.5" transform="matrix(0.499819 0.86613 -0.138441 0.990371 300.978 128.312)" stroke="white"/>
<line y1="-0.5" x2="834.987" y2="-0.5" transform="matrix(0.576451 0.817132 -0.0179796 0.999838 296.018 195.612)" stroke="white"/>
<line y1="-0.5" x2="989.139" y2="-0.5" transform="matrix(0.466105 0.88473 -0.21563 0.976475 306.16 99.2029)" stroke="white"/>
<line y1="-0.5" x2="1028.93" y2="-0.5" transform="matrix(0.434593 0.900627 -0.308476 0.951232 313.101 73.4187)" stroke="white"/>
<line y1="-0.5" x2="581.839" y2="-0.5" transform="matrix(0.787032 0.616912 0.145021 0.989429 307.719 357.291)" stroke="white"/>
<line y1="-0.5" x2="647.461" y2="-0.5" transform="matrix(0.724633 0.689135 0.109911 0.993941 302.095 313.666)" stroke="white"/>
<line y1="-0.5" x2="518.427" y2="-0.5" transform="matrix(0.854887 0.518814 0.177538 0.984114 315.085 402.278)" stroke="white"/>
<line y1="-0.5" x2="712.967" y2="-0.5" transform="matrix(0.66882 0.743425 0.0714265 0.997446 298.259 271.741)" stroke="white"/>
<line y1="-0.5" x2="776.644" y2="-0.5" transform="matrix(0.619192 0.78524 0.028577 0.999592 296.238 231.836)" stroke="white"/>
</g>
<defs>
<filter id="filter0_d_1295_627" x="46.5669" y="365.937" width="979.384" height="349.468" filterUnits="userSpaceOnUse" color-interpolation-filters="sRGB">
<feFlood flood-opacity="0" result="BackgroundImageFix"/>
<feColorMatrix in="SourceAlpha" type="matrix" values="0 0 0 0 0 0 0 0 0 0 0 0 0 0 0 0 0 0 127 0" result="hardAlpha"/>
<feOffset dy="4"/>
<feGaussianBlur stdDeviation="2"/>
<feComposite in2="hardAlpha" operator="out"/>
<feColorMatrix type="matrix" values="0 0 0 0 0 0 0 0 0 0 0 0 0 0 0 0 0 0 0.5 0"/>
<feBlend mode="normal" in2="BackgroundImageFix" result="effect1_dropShadow_1295_627"/>
<feBlend mode="normal" in="SourceGraphic" in2="effect1_dropShadow_1295_627" result="shape"/>
</filter>
<filter id="filter1_d_1295_627" x="84.9136" y="272.945" width="904.357" height="534.478" filterUnits="userSpaceOnUse" color-interpolation-filters="sRGB">
<feFlood flood-opacity="0" result="BackgroundImageFix"/>
<feColorMatrix in="SourceAlpha" type="matrix" values="0 0 0 0 0 0 0 0 0 0 0 0 0 0 0 0 0 0 127 0" result="hardAlpha"/>
<feOffset dy="4"/>
<feGaussianBlur stdDeviation="2"/>
<feComposite in2="hardAlpha" operator="out"/>
<feColorMatrix type="matrix" values="0 0 0 0 0 0 0 0 0 0 0 0 0 0 0 0 0 0 0.5 0"/>
<feBlend mode="normal" in2="BackgroundImageFix" result="effect1_dropShadow_1295_627"/>
<feBlend mode="normal" in="SourceGraphic" in2="effect1_dropShadow_1295_627" result="shape"/>
</filter>
<filter id="filter2_d_1295_627" x="292.018" y="72.4675" width="489.347" height="935.634" filterUnits="userSpaceOnUse" color-interpolation-filters="sRGB">
<feFlood flood-opacity="0" result="BackgroundImageFix"/>
<feColorMatrix in="SourceAlpha" type="matrix" values="0 0 0 0 0 0 0 0 0 0 0 0 0 0 0 0 0 0 127 0" result="hardAlpha"/>
<feOffset dy="4"/>
<feGaussianBlur stdDeviation="2"/>
<feComposite in2="hardAlpha" operator="out"/>
<feColorMatrix type="matrix" values="0 0 0 0 0 0 0 0 0 0 0 0 0 0 0 0 0 0 0.5 0"/>
<feBlend mode="normal" in2="BackgroundImageFix" result="effect1_dropShadow_1295_627"/>
<feBlend mode="normal" in="SourceGraphic" in2="effect1_dropShadow_1295_627" result="shape"/>
</filter>
</defs>
</svg>
