<svg width="505" height="506" viewBox="0 0 505 506" fill="none" xmlns="http://www.w3.org/2000/svg">
<g filter="url(#filter0_d_1365_38)">
<line y1="-0.5" x2="419.517" y2="-0.5" transform="matrix(0.536357 0.843991 -0.0734935 0.997296 140.029 75.5383)" stroke="white"/>
<line y1="-0.5" x2="443.803" y2="-0.5" transform="matrix(0.499819 0.86613 -0.138441 0.990371 141.625 60.3765)" stroke="white"/>
<line y1="-0.5" x2="392.902" y2="-0.5" transform="matrix(0.576451 0.817132 -0.0179796 0.999838 139.29 92.0449)" stroke="white"/>
<line y1="-0.5" x2="465.438" y2="-0.5" transform="matrix(0.466105 0.88473 -0.21563 0.976475 144.063 46.6802)" stroke="white"/>
<line y1="-0.5" x2="484.162" y2="-0.5" transform="matrix(0.434593 0.900627 -0.308476 0.951232 147.329 34.5469)" stroke="white"/>
<line y1="-0.5" x2="273.784" y2="-0.5" transform="matrix(0.787033 0.616912 0.145021 0.989429 144.797 168.122)" stroke="white"/>
<line y1="-0.5" x2="304.662" y2="-0.5" transform="matrix(0.724633 0.689135 0.109911 0.993941 142.15 147.595)" stroke="white"/>
<line y1="-0.5" x2="243.945" y2="-0.5" transform="matrix(0.854887 0.518814 0.177538 0.984114 148.263 189.291)" stroke="white"/>
<line y1="-0.5" x2="335.486" y2="-0.5" transform="matrix(0.66882 0.743425 0.0714265 0.997446 140.345 127.867)" stroke="white"/>
<line y1="-0.5" x2="365.449" y2="-0.5" transform="matrix(0.619192 0.78524 0.028577 0.999592 139.395 109.09)" stroke="white"/>
</g>
<g filter="url(#filter1_d_1365_38)">
<line y1="-0.5" x2="419.517" y2="-0.5" transform="matrix(0.975715 0.219045 0.652051 0.758175 47.7781 206.795)" stroke="white"/>
<line y1="-0.5" x2="443.803" y2="-0.5" transform="matrix(0.965469 0.26052 0.601166 0.799124 38.2031 194.93)" stroke="white"/>
<line y1="-0.5" x2="392.902" y2="-0.5" transform="matrix(0.985146 0.171716 0.693161 0.720783 58.9084 219.006)" stroke="white"/>
<line y1="-0.5" x2="465.438" y2="-0.5" transform="matrix(0.954723 0.297495 0.53669 0.843779 30.2605 183.509)" stroke="white"/>
<line y1="-0.5" x2="484.162" y2="-0.5" transform="matrix(0.943631 0.331 0.453114 0.891453 24.0066 172.611)" stroke="white"/>
<line y1="-0.5" x2="273.784" y2="-0.5" transform="matrix(0.992924 -0.118753 0.801249 0.59833 116.52 268.997)" stroke="white"/>
<line y1="-0.5" x2="304.662" y2="-0.5" transform="matrix(0.999723 -0.0235492 0.77957 0.626315 100.153 256.328)" stroke="white"/>
<line y1="-0.5" x2="243.945" y2="-0.5" transform="matrix(0.971721 -0.236131 0.820526 0.571609 133.92 281.541)" stroke="white"/>
<line y1="-0.5" x2="335.486" y2="-0.5" transform="matrix(0.998524 0.0543036 0.75479 0.655967 84.9458 243.631)" stroke="white"/>
<line y1="-0.5" x2="365.449" y2="-0.5" transform="matrix(0.9929 0.118955 0.725958 0.687739 71.0156 231.004)" stroke="white"/>
</g>
<g filter="url(#filter2_d_1365_38)">
<line y1="-0.5" x2="419.517" y2="-0.5" transform="matrix(-0.80703 0.590511 -0.999968 -0.00798279 421.78 128.434)" stroke="white"/>
<line y1="-0.5" x2="443.803" y2="-0.5" transform="matrix(-0.831515 0.555502 -0.997314 -0.0732444 437.013 129.034)" stroke="white"/>
<line y1="-0.5" x2="392.902" y2="-0.5" transform="matrix(-0.777601 0.628759 -0.998868 0.0475784 405.26 128.779)" stroke="white"/>
<line y1="-0.5" x2="465.438" y2="-0.5" transform="matrix(-0.852284 0.523079 -0.988507 -0.151178 450.841 130.568)" stroke="white"/>
<line y1="-0.5" x2="484.162" y2="-0.5" transform="matrix(-0.870212 0.492677 -0.969402 -0.245479 463.162 133.032)" stroke="white"/>
<line y1="-0.5" x2="273.784" y2="-0.5" transform="matrix(-0.564011 0.825767 -0.977799 0.209547 329.707 139.259)" stroke="white"/>
<line y1="-0.5" x2="304.662" y2="-0.5" transform="matrix(-0.640169 0.768234 -0.984603 0.174807 350.016 135.272)" stroke="white"/>
<line y1="-0.5" x2="243.945" y2="-0.5" transform="matrix(-0.461678 0.887047 -0.970365 0.241646 308.811 144.105)" stroke="white"/>
<line y1="-0.5" x2="335.486" y2="-0.5" transform="matrix(-0.697999 0.716099 -0.990621 0.136636 369.584 132.178)" stroke="white"/>
<line y1="-0.5" x2="365.449" y2="-0.5" transform="matrix(-0.742976 0.669318 -0.99557 0.0940187 388.259 130)" stroke="white"/>
</g>
<defs>
<filter id="filter0_d_1365_38" x="135.29" y="33.5957" width="234.507" height="445" filterUnits="userSpaceOnUse" color-interpolation-filters="sRGB">
<feFlood flood-opacity="0" result="BackgroundImageFix"/>
<feColorMatrix in="SourceAlpha" type="matrix" values="0 0 0 0 0 0 0 0 0 0 0 0 0 0 0 0 0 0 127 0" result="hardAlpha"/>
<feOffset dy="4"/>
<feGaussianBlur stdDeviation="2"/>
<feComposite in2="hardAlpha" operator="out"/>
<feColorMatrix type="matrix" values="0 0 0 0 0 0 0 0 0 0 0 0 0 0 0 0 0 0 0.5 0"/>
<feBlend mode="normal" in2="BackgroundImageFix" result="effect1_dropShadow_1365_38"/>
<feBlend mode="normal" in="SourceGraphic" in2="effect1_dropShadow_1365_38" result="shape"/>
</filter>
<filter id="filter1_d_1365_38" x="19.5535" y="171.719" width="465.323" height="169.149" filterUnits="userSpaceOnUse" color-interpolation-filters="sRGB">
<feFlood flood-opacity="0" result="BackgroundImageFix"/>
<feColorMatrix in="SourceAlpha" type="matrix" values="0 0 0 0 0 0 0 0 0 0 0 0 0 0 0 0 0 0 127 0" result="hardAlpha"/>
<feOffset dy="4"/>
<feGaussianBlur stdDeviation="2"/>
<feComposite in2="hardAlpha" operator="out"/>
<feColorMatrix type="matrix" values="0 0 0 0 0 0 0 0 0 0 0 0 0 0 0 0 0 0 0.5 0"/>
<feBlend mode="normal" in2="BackgroundImageFix" result="effect1_dropShadow_1365_38"/>
<feBlend mode="normal" in="SourceGraphic" in2="effect1_dropShadow_1365_38" result="shape"/>
</filter>
<filter id="filter2_d_1365_38" x="37.8381" y="128.434" width="430.293" height="255.738" filterUnits="userSpaceOnUse" color-interpolation-filters="sRGB">
<feFlood flood-opacity="0" result="BackgroundImageFix"/>
<feColorMatrix in="SourceAlpha" type="matrix" values="0 0 0 0 0 0 0 0 0 0 0 0 0 0 0 0 0 0 127 0" result="hardAlpha"/>
<feOffset dy="4"/>
<feGaussianBlur stdDeviation="2"/>
<feComposite in2="hardAlpha" operator="out"/>
<feColorMatrix type="matrix" values="0 0 0 0 0 0 0 0 0 0 0 0 0 0 0 0 0 0 0.5 0"/>
<feBlend mode="normal" in2="BackgroundImageFix" result="effect1_dropShadow_1365_38"/>
<feBlend mode="normal" in="SourceGraphic" in2="effect1_dropShadow_1365_38" result="shape"/>
</filter>
</defs>
</svg>
