<svg width="1133" height="1133" viewBox="0 0 1133 1133" fill="none" xmlns="http://www.w3.org/2000/svg">
<g filter="url(#filter0_d_1295_628)">
<line y1="-0.5" x2="940.947" y2="-0.5" transform="matrix(0.536357 0.843991 -0.0734935 0.997296 314.075 169.426)" stroke="white"/>
<line y1="-0.5" x2="995.417" y2="-0.5" transform="matrix(0.499819 0.86613 -0.138441 0.990371 317.654 135.42)" stroke="white"/>
<line y1="-0.5" x2="881.25" y2="-0.5" transform="matrix(0.576451 0.817132 -0.0179796 0.999838 312.419 206.45)" stroke="white"/>
<line y1="-0.5" x2="1043.94" y2="-0.5" transform="matrix(0.466105 0.88473 -0.21563 0.976475 323.124 104.699)" stroke="white"/>
<line y1="-0.5" x2="1085.94" y2="-0.5" transform="matrix(0.434593 0.900627 -0.308476 0.951232 330.448 77.4861)" stroke="white"/>
<line y1="-0.5" x2="614.077" y2="-0.5" transform="matrix(0.787032 0.616912 0.145021 0.989429 324.769 377.087)" stroke="white"/>
<line y1="-0.5" x2="683.335" y2="-0.5" transform="matrix(0.724633 0.689135 0.109911 0.993941 318.833 331.045)" stroke="white"/>
<line y1="-0.5" x2="547.151" y2="-0.5" transform="matrix(0.854887 0.518814 0.177538 0.984114 332.543 424.566)" stroke="white"/>
<line y1="-0.5" x2="752.47" y2="-0.5" transform="matrix(0.66882 0.743425 0.0714265 0.997446 314.785 286.797)" stroke="white"/>
<line y1="-0.5" x2="819.675" y2="-0.5" transform="matrix(0.619192 0.78524 0.028577 0.999592 312.652 244.681)" stroke="white"/>
</g>
<g filter="url(#filter1_d_1295_628)">
<line y1="-0.5" x2="940.947" y2="-0.5" transform="matrix(0.975715 0.219045 0.652051 0.758175 107.161 463.823)" stroke="white"/>
<line y1="-0.5" x2="995.417" y2="-0.5" transform="matrix(0.965469 0.26052 0.601166 0.799124 85.6875 437.214)" stroke="white"/>
<line y1="-0.5" x2="881.25" y2="-0.5" transform="matrix(0.985146 0.171716 0.693161 0.720783 132.127 491.214)" stroke="white"/>
<line y1="-0.5" x2="1043.94" y2="-0.5" transform="matrix(0.954723 0.297495 0.53669 0.843779 67.8711 411.595)" stroke="white"/>
<line y1="-0.5" x2="1085.94" y2="-0.5" transform="matrix(0.943631 0.331 0.453114 0.891453 53.8457 387.153)" stroke="white"/>
<line y1="-0.5" x2="614.077" y2="-0.5" transform="matrix(0.992924 -0.118753 0.801249 0.59833 261.345 603.341)" stroke="white"/>
<line y1="-0.5" x2="683.335" y2="-0.5" transform="matrix(0.999723 -0.0235492 0.77957 0.626315 224.634 574.923)" stroke="white"/>
<line y1="-0.5" x2="547.151" y2="-0.5" transform="matrix(0.971721 -0.236131 0.820526 0.571609 300.372 631.476)" stroke="white"/>
<line y1="-0.5" x2="752.47" y2="-0.5" transform="matrix(0.998524 0.0543036 0.75479 0.655967 190.528 546.445)" stroke="white"/>
<line y1="-0.5" x2="819.675" y2="-0.5" transform="matrix(0.9929 0.118955 0.725958 0.687739 159.283 518.125)" stroke="white"/>
</g>
<g filter="url(#filter2_d_1295_628)">
<line y1="-0.5" x2="940.947" y2="-0.5" transform="matrix(-0.80703 0.590511 -0.999968 -0.00798279 946.022 288.068)" stroke="white"/>
<line y1="-0.5" x2="995.417" y2="-0.5" transform="matrix(-0.831515 0.555502 -0.997314 -0.0732444 980.189 289.411)" stroke="white"/>
<line y1="-0.5" x2="881.25" y2="-0.5" transform="matrix(-0.777601 0.628759 -0.998868 0.0475784 908.969 288.841)" stroke="white"/>
<line y1="-0.5" x2="1043.94" y2="-0.5" transform="matrix(-0.852284 0.523079 -0.988507 -0.151178 1011.2 292.855)" stroke="white"/>
<line y1="-0.5" x2="1085.94" y2="-0.5" transform="matrix(-0.870212 0.492677 -0.969402 -0.245479 1038.84 298.38)" stroke="white"/>
<line y1="-0.5" x2="614.077" y2="-0.5" transform="matrix(-0.564011 0.825767 -0.977799 0.209547 739.508 312.346)" stroke="white"/>
<line y1="-0.5" x2="683.335" y2="-0.5" transform="matrix(-0.640169 0.768234 -0.984603 0.174807 785.062 303.406)" stroke="white"/>
<line y1="-0.5" x2="547.151" y2="-0.5" transform="matrix(-0.461678 0.887047 -0.970365 0.241646 692.641 323.216)" stroke="white"/>
<line y1="-0.5" x2="752.47" y2="-0.5" transform="matrix(-0.697999 0.716099 -0.990621 0.136636 828.95 296.467)" stroke="white"/>
<line y1="-0.5" x2="819.675" y2="-0.5" transform="matrix(-0.742976 0.669318 -0.99557 0.0940187 870.835 291.579)" stroke="white"/>
</g>
<g filter="url(#filter3_d_1295_628)">
<path d="M223.29 697C221.29 697 220.29 696.333 220.29 695C220.29 693.667 221.223 692.8 223.09 692.4L226.09 691.8C228.757 691.267 230.757 690 232.09 688C233.423 685.867 234.557 682.933 235.49 679.2L266.49 554.2C266.757 552.867 267.157 552 267.69 551.6C268.357 551.2 268.957 551 269.49 551C270.157 551 270.757 551.2 271.29 551.6C271.957 552 272.423 552.867 272.69 554.2L304.29 681C305.223 684.733 306.29 687.333 307.49 688.8C308.69 690.267 310.557 691.267 313.09 691.8L316.09 692.4C317.957 692.8 318.89 693.667 318.89 695C318.89 696.333 317.89 697 315.89 697H281.69C279.823 697 278.89 696.267 278.89 694.8C278.89 693.333 280.023 692.533 282.29 692.4L286.09 692C288.357 691.733 289.757 691 290.29 689.8C290.957 688.6 290.957 686.533 290.29 683.6L282.69 652.6C281.89 649.133 279.69 647.4 276.09 647.4H255.09C251.623 647.4 249.423 649.133 248.49 652.6L241.69 679.4C239.69 687 241.69 691.2 247.69 692L250.69 692.4C252.957 692.8 254.09 693.6 254.09 694.8C254.09 696.267 253.157 697 251.29 697H223.29ZM254.49 641.4H276.49C278.623 641.4 279.49 640.267 279.09 638L266.29 584.4H265.29L251.89 638C251.49 640.267 252.357 641.4 254.49 641.4ZM346.096 607.8C351.563 598.467 358.163 593.8 365.896 593.8C370.296 593.8 373.563 595.133 375.696 597.8C377.83 600.333 378.896 603.2 378.896 606.4C378.896 608.933 378.23 611 376.896 612.6C375.696 614.2 373.763 615 371.096 615C368.963 615 367.363 614.533 366.296 613.6C365.363 612.533 364.563 611.333 363.896 610C363.363 608.667 362.696 607.533 361.896 606.6C361.096 605.533 359.763 605 357.896 605C355.496 605 353.23 606.467 351.096 609.4C348.963 612.2 347.163 616 345.696 620.8C344.363 625.6 343.696 631.067 343.696 637.2V683.6C343.696 686.4 344.096 688.4 344.896 689.6C345.83 690.8 347.696 691.533 350.496 691.8L355.896 692.4C357.363 692.667 358.096 693.4 358.096 694.6C358.096 696.2 357.096 697 355.096 697H321.296C319.296 697 318.296 696.267 318.296 694.8C318.296 693.6 319.163 692.8 320.896 692.4L323.296 692C326.096 691.467 327.896 690.667 328.696 689.6C329.63 688.4 330.096 686.4 330.096 683.6V616.4C330.096 614 329.696 612.4 328.896 611.6C328.23 610.667 326.963 610.067 325.096 609.8L320.896 609.2C319.163 609.067 318.296 608.333 318.296 607C318.296 605.933 319.363 605.2 321.496 604.8C325.63 604.133 328.763 603.067 330.896 601.6C333.163 600.133 335.496 598.333 337.896 596.2C339.096 595 340.096 594.4 340.896 594.4C342.096 594.4 342.696 595.2 342.696 596.8V607.6C342.696 608.533 343.096 609.133 343.896 609.4C344.696 609.533 345.43 609 346.096 607.8ZM414.968 698.8C409.102 698.8 403.768 696.867 398.968 693C394.302 689 390.568 683.333 387.768 676C384.968 668.667 383.568 659.933 383.568 649.8C383.568 638.467 385.235 628.6 388.568 620.2C392.035 611.8 396.702 605.333 402.568 600.8C408.435 596.133 414.968 593.8 422.168 593.8C428.302 593.8 433.102 595 436.568 597.4C437.902 598.333 438.568 599.8 438.568 601.8L438.968 626.2C438.968 628.2 438.168 629.2 436.568 629.2C435.102 629.2 434.168 628.333 433.768 626.6C431.902 619.267 430.102 613.6 428.368 609.6C426.635 605.6 424.835 602.867 422.968 601.4C421.102 599.8 419.035 599 416.768 599C414.102 599 411.302 600.533 408.368 603.6C405.568 606.667 403.168 611.667 401.168 618.6C399.302 625.4 398.368 634.4 398.368 645.6C398.368 659.867 400.168 670.6 403.768 677.8C407.502 685 412.302 688.6 418.168 688.6C422.835 688.6 426.702 686.667 429.768 682.8C432.968 678.933 435.702 671.933 437.968 661.8C438.368 660.333 439.168 659.6 440.368 659.6C441.968 659.6 442.568 660.933 442.168 663.6C440.702 672.933 438.635 680.2 435.968 685.4C433.435 690.467 430.368 694 426.768 696C423.302 697.867 419.368 698.8 414.968 698.8ZM452.142 697C450.542 697 449.742 696.267 449.742 694.8C449.742 693.467 450.475 692.667 451.942 692.4L454.742 692C457.542 691.6 459.342 690.8 460.142 689.6C461.075 688.4 461.542 686.4 461.542 683.6V569C461.542 566.6 461.142 565 460.342 564.2C459.675 563.267 458.408 562.667 456.542 562.4L452.342 561.8C450.875 561.533 450.142 560.733 450.142 559.4C450.142 558.067 450.875 557.267 452.342 557C456.075 556.2 459.208 555.267 461.742 554.2C464.275 553.133 466.408 552.067 468.142 551C470.275 549.667 471.875 549 472.942 549C474.408 549 475.142 550.067 475.142 552.2V605.2C475.142 606.4 475.542 607.133 476.342 607.4C477.142 607.533 478.142 607.067 479.342 606C484.408 601.333 488.875 598.133 492.742 596.4C496.608 594.667 500.675 593.8 504.942 593.8C511.208 593.8 516.142 595.933 519.742 600.2C523.342 604.333 525.142 610.467 525.142 618.6V683.6C525.142 686.4 525.542 688.4 526.342 689.6C527.275 690.667 529.142 691.4 531.942 691.8L536.342 692.4C537.808 692.667 538.542 693.467 538.542 694.8C538.542 696.267 537.742 697 536.142 697H502.542C500.675 697 499.742 696.267 499.742 694.8C499.742 693.467 500.475 692.667 501.942 692.4L504.742 692C507.542 691.6 509.342 690.8 510.142 689.6C511.075 688.4 511.542 686.4 511.542 683.6V620.8C511.542 614.267 510.342 609.667 507.942 607C505.542 604.333 502.142 603 497.742 603C493.475 603 489.608 604.267 486.142 606.8C482.808 609.2 480.142 612.467 478.142 616.6C476.142 620.6 475.142 625.067 475.142 630V683.6C475.142 686.4 475.542 688.4 476.342 689.6C477.275 690.8 479.142 691.533 481.942 691.8L487.342 692.4C488.808 692.667 489.542 693.467 489.542 694.8C489.542 696.267 488.742 697 487.142 697H452.142ZM563.487 576C560.687 576 558.287 575 556.287 573C554.42 571 553.487 568.467 553.487 565.4C553.487 562.333 554.42 559.867 556.287 558C558.287 556 560.687 555 563.487 555C566.287 555 568.62 556 570.487 558C572.354 559.867 573.287 562.333 573.287 565.4C573.287 568.467 572.354 571 570.487 573C568.62 575 566.287 576 563.487 576ZM546.687 697C544.687 697 543.687 696.267 543.687 694.8C543.687 693.6 544.554 692.8 546.287 692.4L548.687 692C552.02 691.467 554.154 690.667 555.087 689.6C556.02 688.4 556.487 686.4 556.487 683.6V616.4C556.487 614 556.087 612.4 555.287 611.6C554.62 610.667 553.354 610.067 551.487 609.8L547.287 609.2C545.554 609.067 544.687 608.333 544.687 607C544.687 605.933 545.754 605.2 547.887 604.8C552.02 604.133 555.354 603.067 557.887 601.6C560.42 600.133 562.887 598.333 565.287 596.2C566.487 595 567.487 594.4 568.287 594.4C569.487 594.4 570.087 595.2 570.087 596.8V683.6C570.087 686.4 570.487 688.4 571.287 689.6C572.087 690.8 573.62 691.533 575.887 691.8L580.887 692.4C582.354 692.667 583.087 693.4 583.087 694.6C583.087 696.2 582.087 697 580.087 697H546.687ZM624.018 698.8C622.818 698.8 621.952 698.067 621.418 696.6L594.818 608.4C593.885 605.2 592.952 603.133 592.018 602.2C591.218 601.267 589.885 600.6 588.018 600.2L585.018 599.6C583.285 599.2 582.418 598.333 582.418 597C582.418 595.667 583.352 595 585.218 595H618.218C620.085 595 621.018 595.667 621.018 597C621.018 598.467 620.152 599.333 618.418 599.6L615.218 600C612.018 600.4 610.018 601.2 609.218 602.4C608.418 603.467 608.418 605.467 609.218 608.4L625.818 666.2C626.218 667.667 626.885 668.4 627.818 668.4C628.752 668.4 629.418 667.667 629.818 666.2L646.018 612C647.085 608.4 647.352 605.733 646.818 604C646.418 602.133 644.552 600.933 641.218 600.4L637.018 599.6C635.285 599.2 634.418 598.333 634.418 597C634.418 595.667 635.352 595 637.218 595H662.618C664.485 595 665.418 595.733 665.418 597.2C665.418 598.533 664.618 599.467 663.018 600L661.218 600.6C659.218 601.267 657.485 602.467 656.018 604.2C654.685 605.933 653.352 608.933 652.018 613.2L626.618 696.6C626.085 698.067 625.218 698.8 624.018 698.8ZM699.79 698.8C693.39 698.8 687.657 696.667 682.59 692.4C677.523 688.133 673.457 682.133 670.39 674.4C667.457 666.533 665.99 657.467 665.99 647.2C665.99 636.667 667.523 627.4 670.59 619.4C673.657 611.4 677.857 605.133 683.19 600.6C688.523 596.067 694.457 593.8 700.99 593.8C708.857 593.8 715.19 597.067 719.99 603.6C724.923 610 727.39 620.467 727.39 635C727.39 639.4 725.723 641.6 722.39 641.6H684.39C681.723 641.6 680.39 643.133 680.39 646.2C680.39 660.333 682.457 670.933 686.59 678C690.723 685.067 695.99 688.6 702.39 688.6C707.457 688.6 711.59 686.8 714.79 683.2C717.99 679.6 720.59 673.533 722.59 665C722.99 663.533 723.857 662.8 725.19 662.8C726.79 662.8 727.39 664.133 726.99 666.8C724.857 678.667 721.457 687 716.79 691.8C712.123 696.467 706.457 698.8 699.79 698.8ZM683.79 636.6H703.99C710.39 636.6 713.59 633.267 713.59 626.6C713.59 617.933 712.523 611.133 710.39 606.2C708.257 601.267 705.057 598.8 700.79 598.8C695.59 598.8 691.19 601.8 687.59 607.8C684.123 613.8 681.857 622.333 680.79 633.4C680.523 635.533 681.523 636.6 683.79 636.6ZM737.484 718.8C736.151 718.8 735.484 718.133 735.484 716.8V714C735.484 712.667 736.151 712 737.484 712H802.684C804.017 712 804.684 712.667 804.684 714V716.8C804.684 718.133 804.017 718.8 802.684 718.8H737.484ZM893.479 698.8C891.346 698.8 889.546 697.2 888.079 694L833.879 576.4C833.479 575.467 832.946 575.067 832.279 575.2C831.746 575.333 831.479 575.933 831.479 577V679.8C831.479 683.533 832.079 686.4 833.279 688.4C834.613 690.267 836.946 691.467 840.279 692L842.879 692.4C844.613 692.533 845.479 693.333 845.479 694.8C845.479 696.267 844.479 697 842.479 697H813.879C811.879 697 810.879 696.267 810.879 694.8C810.879 693.333 811.746 692.533 813.479 692.4L816.079 692C819.546 691.467 821.946 690.267 823.279 688.4C824.613 686.4 825.279 683.533 825.279 679.8V566.2C825.279 563.4 824.813 561.533 823.879 560.6C823.079 559.667 821.146 558.933 818.079 558.4L813.479 557.6C811.746 557.2 810.879 556.4 810.879 555.2C810.879 553.733 811.879 553 813.879 553H835.279C838.613 553 840.946 554.467 842.279 557.4L889.479 661.2C889.879 662 890.346 662.333 890.879 662.2C891.546 662.067 891.879 661.6 891.879 660.8V570.2C891.879 565.933 891.146 563 889.679 561.4C888.213 559.667 886.346 558.6 884.079 558.2L880.479 557.6C878.746 557.2 877.879 556.4 877.879 555.2C877.879 553.733 878.879 553 880.879 553H909.479C911.479 553 912.479 553.733 912.479 555.2C912.479 556.667 911.613 557.467 909.879 557.6L907.279 558C903.813 558.533 901.413 559.667 900.079 561.4C898.746 563 898.079 565.933 898.079 570.2V692.4C898.079 694.8 897.613 696.467 896.679 697.4C895.879 698.333 894.813 698.8 893.479 698.8ZM950.571 698.8C944.171 698.8 938.438 696.667 933.371 692.4C928.305 688.133 924.238 682.133 921.171 674.4C918.238 666.533 916.771 657.467 916.771 647.2C916.771 636.667 918.305 627.4 921.371 619.4C924.438 611.4 928.638 605.133 933.971 600.6C939.305 596.067 945.238 593.8 951.771 593.8C959.638 593.8 965.971 597.067 970.771 603.6C975.705 610 978.171 620.467 978.171 635C978.171 639.4 976.505 641.6 973.171 641.6H935.171C932.505 641.6 931.171 643.133 931.171 646.2C931.171 660.333 933.238 670.933 937.371 678C941.505 685.067 946.771 688.6 953.171 688.6C958.238 688.6 962.371 686.8 965.571 683.2C968.771 679.6 971.371 673.533 973.371 665C973.771 663.533 974.638 662.8 975.971 662.8C977.571 662.8 978.171 664.133 977.771 666.8C975.638 678.667 972.238 687 967.571 691.8C962.905 696.467 957.238 698.8 950.571 698.8ZM934.571 636.6H954.771C961.171 636.6 964.371 633.267 964.371 626.6C964.371 617.933 963.305 611.133 961.171 606.2C959.038 601.267 955.838 598.8 951.571 598.8C946.371 598.8 941.971 601.8 938.371 607.8C934.905 613.8 932.638 622.333 931.571 633.4C931.305 635.533 932.305 636.6 934.571 636.6ZM1021.67 698.8C1015.27 698.8 1009.53 696.667 1004.47 692.4C999.398 688.133 995.332 682.133 992.265 674.4C989.332 666.533 987.865 657.467 987.865 647.2C987.865 636.667 989.398 627.4 992.465 619.4C995.532 611.4 999.732 605.133 1005.07 600.6C1010.4 596.067 1016.33 593.8 1022.87 593.8C1030.73 593.8 1037.07 597.067 1041.87 603.6C1046.8 610 1049.27 620.467 1049.27 635C1049.27 639.4 1047.6 641.6 1044.27 641.6H1006.27C1003.6 641.6 1002.27 643.133 1002.27 646.2C1002.27 660.333 1004.33 670.933 1008.47 678C1012.6 685.067 1017.87 688.6 1024.27 688.6C1029.33 688.6 1033.47 686.8 1036.67 683.2C1039.87 679.6 1042.47 673.533 1044.47 665C1044.87 663.533 1045.73 662.8 1047.07 662.8C1048.67 662.8 1049.27 664.133 1048.87 666.8C1046.73 678.667 1043.33 687 1038.67 691.8C1034 696.467 1028.33 698.8 1021.67 698.8ZM1005.67 636.6H1025.87C1032.27 636.6 1035.47 633.267 1035.47 626.6C1035.47 617.933 1034.4 611.133 1032.27 606.2C1030.13 601.267 1026.93 598.8 1022.67 598.8C1017.47 598.8 1013.07 601.8 1009.47 607.8C1006 613.8 1003.73 622.333 1002.67 633.4C1002.4 635.533 1003.4 636.6 1005.67 636.6ZM1083.76 698.8C1079.09 698.8 1075.23 697.2 1072.16 694C1069.23 690.667 1067.76 685.267 1067.76 677.8V603C1067.76 601.4 1066.96 600.6 1065.36 600.6H1059.56C1057.43 600.6 1056.36 599.8 1056.36 598.2C1056.36 597.133 1056.96 596.2 1058.16 595.4C1062.56 592.333 1066.09 589.067 1068.76 585.6C1071.43 582 1073.76 577.133 1075.76 571C1076.69 568.2 1077.83 566.8 1079.16 566.8C1080.63 566.8 1081.36 567.867 1081.36 570V592.2C1081.36 594.067 1082.29 595 1084.16 595H1097.16C1099.29 595 1100.36 595.933 1100.36 597.8C1100.36 599.667 1099.29 600.6 1097.16 600.6H1084.16C1082.29 600.6 1081.36 601.533 1081.36 603.4V678C1081.36 680.933 1081.83 683.267 1082.76 685C1083.69 686.6 1085.43 687.4 1087.96 687.4C1090.76 687.4 1093.03 686 1094.76 683.2C1096.63 680.4 1097.83 675.867 1098.36 669.6C1098.63 667.733 1099.49 666.8 1100.96 666.8C1102.56 666.8 1103.36 667.8 1103.36 669.8C1102.96 680.067 1100.83 687.467 1096.96 692C1093.23 696.533 1088.83 698.8 1083.76 698.8Z" fill="white"/>
</g>
<defs>
<filter id="filter0_d_1295_628" x="308.419" y="76.5349" width="516.016" height="986.978" filterUnits="userSpaceOnUse" color-interpolation-filters="sRGB">
<feFlood flood-opacity="0" result="BackgroundImageFix"/>
<feColorMatrix in="SourceAlpha" type="matrix" values="0 0 0 0 0 0 0 0 0 0 0 0 0 0 0 0 0 0 127 0" result="hardAlpha"/>
<feOffset dy="4"/>
<feGaussianBlur stdDeviation="2"/>
<feComposite in2="hardAlpha" operator="out"/>
<feColorMatrix type="matrix" values="0 0 0 0 0 0 0 0 0 0 0 0 0 0 0 0 0 0 0.5 0"/>
<feBlend mode="normal" in2="BackgroundImageFix" result="effect1_dropShadow_1295_628"/>
<feBlend mode="normal" in="SourceGraphic" in2="effect1_dropShadow_1295_628" result="shape"/>
</filter>
<filter id="filter1_d_1295_628" x="49.3926" y="386.261" width="1033.18" height="368.338" filterUnits="userSpaceOnUse" color-interpolation-filters="sRGB">
<feFlood flood-opacity="0" result="BackgroundImageFix"/>
<feColorMatrix in="SourceAlpha" type="matrix" values="0 0 0 0 0 0 0 0 0 0 0 0 0 0 0 0 0 0 127 0" result="hardAlpha"/>
<feOffset dy="4"/>
<feGaussianBlur stdDeviation="2"/>
<feComposite in2="hardAlpha" operator="out"/>
<feColorMatrix type="matrix" values="0 0 0 0 0 0 0 0 0 0 0 0 0 0 0 0 0 0 0.5 0"/>
<feBlend mode="normal" in2="BackgroundImageFix" result="effect1_dropShadow_1295_628"/>
<feBlend mode="normal" in="SourceGraphic" in2="effect1_dropShadow_1295_628" result="shape"/>
</filter>
<filter id="filter2_d_1295_628" x="89.8403" y="288.068" width="953.968" height="563.648" filterUnits="userSpaceOnUse" color-interpolation-filters="sRGB">
<feFlood flood-opacity="0" result="BackgroundImageFix"/>
<feColorMatrix in="SourceAlpha" type="matrix" values="0 0 0 0 0 0 0 0 0 0 0 0 0 0 0 0 0 0 127 0" result="hardAlpha"/>
<feOffset dy="4"/>
<feGaussianBlur stdDeviation="2"/>
<feComposite in2="hardAlpha" operator="out"/>
<feColorMatrix type="matrix" values="0 0 0 0 0 0 0 0 0 0 0 0 0 0 0 0 0 0 0.5 0"/>
<feBlend mode="normal" in2="BackgroundImageFix" result="effect1_dropShadow_1295_628"/>
<feBlend mode="normal" in="SourceGraphic" in2="effect1_dropShadow_1295_628" result="shape"/>
</filter>
<filter id="filter3_d_1295_628" x="216.29" y="549" width="891.069" height="177.8" filterUnits="userSpaceOnUse" color-interpolation-filters="sRGB">
<feFlood flood-opacity="0" result="BackgroundImageFix"/>
<feColorMatrix in="SourceAlpha" type="matrix" values="0 0 0 0 0 0 0 0 0 0 0 0 0 0 0 0 0 0 127 0" result="hardAlpha"/>
<feOffset dy="4"/>
<feGaussianBlur stdDeviation="2"/>
<feComposite in2="hardAlpha" operator="out"/>
<feColorMatrix type="matrix" values="0 0 0 0 0 0 0 0 0 0 0 0 0 0 0 0 0 0 0.5 0"/>
<feBlend mode="normal" in2="BackgroundImageFix" result="effect1_dropShadow_1295_628"/>
<feBlend mode="normal" in="SourceGraphic" in2="effect1_dropShadow_1295_628" result="shape"/>
</filter>
</defs>
</svg>
