<svg width="505" height="506" viewBox="0 0 505 506" fill="none" xmlns="http://www.w3.org/2000/svg">
<g filter="url(#filter0_d_1362_2)">
<line y1="-0.5" x2="419.517" y2="-0.5" transform="matrix(0.536357 0.843991 -0.0734935 0.997296 140.029 75.5383)" stroke="white"/>
<line y1="-0.5" x2="443.803" y2="-0.5" transform="matrix(0.499819 0.86613 -0.138441 0.990371 141.625 60.3765)" stroke="white"/>
<line y1="-0.5" x2="392.902" y2="-0.5" transform="matrix(0.576451 0.817132 -0.0179796 0.999838 139.29 92.0449)" stroke="white"/>
<line y1="-0.5" x2="465.438" y2="-0.5" transform="matrix(0.466105 0.88473 -0.21563 0.976475 144.063 46.6802)" stroke="white"/>
<line y1="-0.5" x2="484.162" y2="-0.5" transform="matrix(0.434593 0.900627 -0.308476 0.951232 147.329 34.5469)" stroke="white"/>
<line y1="-0.5" x2="273.784" y2="-0.5" transform="matrix(0.787033 0.616912 0.145021 0.989429 144.797 168.122)" stroke="white"/>
<line y1="-0.5" x2="304.662" y2="-0.5" transform="matrix(0.724633 0.689135 0.109911 0.993941 142.15 147.595)" stroke="white"/>
<line y1="-0.5" x2="243.945" y2="-0.5" transform="matrix(0.854887 0.518814 0.177538 0.984114 148.263 189.291)" stroke="white"/>
<line y1="-0.5" x2="335.486" y2="-0.5" transform="matrix(0.66882 0.743425 0.0714265 0.997446 140.345 127.867)" stroke="white"/>
<line y1="-0.5" x2="365.449" y2="-0.5" transform="matrix(0.619192 0.78524 0.028577 0.999592 139.395 109.09)" stroke="white"/>
</g>
<g filter="url(#filter1_d_1362_2)">
<line y1="-0.5" x2="419.517" y2="-0.5" transform="matrix(0.975715 0.219045 0.652051 0.758175 47.7781 206.795)" stroke="white"/>
<line y1="-0.5" x2="443.803" y2="-0.5" transform="matrix(0.965469 0.26052 0.601166 0.799124 38.2031 194.93)" stroke="white"/>
<line y1="-0.5" x2="392.902" y2="-0.5" transform="matrix(0.985146 0.171716 0.693161 0.720783 58.9084 219.006)" stroke="white"/>
<line y1="-0.5" x2="465.438" y2="-0.5" transform="matrix(0.954723 0.297495 0.53669 0.843779 30.2605 183.509)" stroke="white"/>
<line y1="-0.5" x2="484.162" y2="-0.5" transform="matrix(0.943631 0.331 0.453114 0.891453 24.0066 172.611)" stroke="white"/>
<line y1="-0.5" x2="273.784" y2="-0.5" transform="matrix(0.992924 -0.118753 0.801249 0.59833 116.52 268.997)" stroke="white"/>
<line y1="-0.5" x2="304.662" y2="-0.5" transform="matrix(0.999723 -0.0235492 0.77957 0.626315 100.153 256.328)" stroke="white"/>
<line y1="-0.5" x2="243.945" y2="-0.5" transform="matrix(0.971721 -0.236131 0.820526 0.571609 133.92 281.541)" stroke="white"/>
<line y1="-0.5" x2="335.486" y2="-0.5" transform="matrix(0.998524 0.0543036 0.75479 0.655967 84.9458 243.631)" stroke="white"/>
<line y1="-0.5" x2="365.449" y2="-0.5" transform="matrix(0.9929 0.118955 0.725958 0.687739 71.0156 231.004)" stroke="white"/>
</g>
<g filter="url(#filter2_d_1362_2)">
<line y1="-0.5" x2="419.517" y2="-0.5" transform="matrix(-0.80703 0.590511 -0.999968 -0.00798279 421.78 128.434)" stroke="white"/>
<line y1="-0.5" x2="443.803" y2="-0.5" transform="matrix(-0.831515 0.555502 -0.997314 -0.0732444 437.013 129.034)" stroke="white"/>
<line y1="-0.5" x2="392.902" y2="-0.5" transform="matrix(-0.777601 0.628759 -0.998868 0.0475784 405.26 128.779)" stroke="white"/>
<line y1="-0.5" x2="465.438" y2="-0.5" transform="matrix(-0.852284 0.523079 -0.988507 -0.151178 450.841 130.568)" stroke="white"/>
<line y1="-0.5" x2="484.162" y2="-0.5" transform="matrix(-0.870212 0.492677 -0.969402 -0.245479 463.162 133.032)" stroke="white"/>
<line y1="-0.5" x2="273.784" y2="-0.5" transform="matrix(-0.564011 0.825767 -0.977799 0.209547 329.707 139.259)" stroke="white"/>
<line y1="-0.5" x2="304.662" y2="-0.5" transform="matrix(-0.640169 0.768234 -0.984603 0.174807 350.016 135.272)" stroke="white"/>
<line y1="-0.5" x2="243.945" y2="-0.5" transform="matrix(-0.461678 0.887047 -0.970365 0.241646 308.811 144.105)" stroke="white"/>
<line y1="-0.5" x2="335.486" y2="-0.5" transform="matrix(-0.697999 0.716099 -0.990621 0.136636 369.584 132.178)" stroke="white"/>
<line y1="-0.5" x2="365.449" y2="-0.5" transform="matrix(-0.742976 0.669318 -0.99557 0.0940187 388.259 130)" stroke="white"/>
</g>
<g filter="url(#filter3_d_1362_2)">
<path d="M37.712 290C36.752 290 36.272 289.68 36.272 289.04C36.272 288.4 36.72 287.984 37.616 287.792L39.056 287.504C40.336 287.248 41.296 286.64 41.936 285.68C42.576 284.656 43.12 283.248 43.568 281.456L58.448 221.456C58.576 220.816 58.768 220.4 59.024 220.208C59.344 220.016 59.632 219.92 59.888 219.92C60.208 219.92 60.496 220.016 60.752 220.208C61.072 220.4 61.296 220.816 61.424 221.456L76.592 282.32C77.04 284.112 77.552 285.36 78.128 286.064C78.704 286.768 79.6 287.248 80.816 287.504L82.256 287.792C83.152 287.984 83.6 288.4 83.6 289.04C83.6 289.68 83.12 290 82.16 290H65.744C64.848 290 64.4 289.648 64.4 288.944C64.4 288.24 64.944 287.856 66.032 287.792L67.856 287.6C68.944 287.472 69.616 287.12 69.872 286.544C70.192 285.968 70.192 284.976 69.872 283.568L66.224 268.688C65.84 267.024 64.784 266.192 63.056 266.192H52.976C51.312 266.192 50.256 267.024 49.808 268.688L46.544 281.552C45.584 285.2 46.544 287.216 49.424 287.6L50.864 287.792C51.952 287.984 52.496 288.368 52.496 288.944C52.496 289.648 52.048 290 51.152 290H37.712ZM52.688 263.312H63.248C64.272 263.312 64.688 262.768 64.496 261.68L58.352 235.952H57.872L51.44 261.68C51.248 262.768 51.664 263.312 52.688 263.312ZM96.659 247.184C99.283 242.704 102.451 240.464 106.163 240.464C108.275 240.464 109.843 241.104 110.867 242.384C111.891 243.6 112.403 244.976 112.403 246.512C112.403 247.728 112.083 248.72 111.443 249.488C110.867 250.256 109.939 250.64 108.659 250.64C107.635 250.64 106.867 250.416 106.355 249.968C105.907 249.456 105.523 248.88 105.203 248.24C104.947 247.6 104.627 247.056 104.243 246.608C103.859 246.096 103.219 245.84 102.323 245.84C101.171 245.84 100.083 246.544 99.059 247.952C98.035 249.296 97.171 251.12 96.467 253.424C95.827 255.728 95.507 258.352 95.507 261.296V283.568C95.507 284.912 95.699 285.872 96.083 286.448C96.531 287.024 97.427 287.376 98.771 287.504L101.363 287.792C102.067 287.92 102.419 288.272 102.419 288.848C102.419 289.616 101.939 290 100.979 290H84.755C83.795 290 83.315 289.648 83.315 288.944C83.315 288.368 83.731 287.984 84.563 287.792L85.715 287.6C87.059 287.344 87.923 286.96 88.307 286.448C88.755 285.872 88.979 284.912 88.979 283.568V251.312C88.979 250.16 88.787 249.392 88.403 249.008C88.083 248.56 87.475 248.272 86.579 248.144L84.563 247.856C83.731 247.792 83.315 247.44 83.315 246.8C83.315 246.288 83.827 245.936 84.851 245.744C86.835 245.424 88.339 244.912 89.363 244.208C90.451 243.504 91.571 242.64 92.723 241.616C93.299 241.04 93.779 240.752 94.163 240.752C94.739 240.752 95.027 241.136 95.027 241.904V247.088C95.027 247.536 95.219 247.824 95.603 247.952C95.987 248.016 96.339 247.76 96.659 247.184ZM129.718 290.864C126.902 290.864 124.342 289.936 122.038 288.08C119.798 286.16 118.006 283.44 116.662 279.92C115.318 276.4 114.646 272.208 114.646 267.344C114.646 261.904 115.446 257.168 117.046 253.136C118.71 249.104 120.95 246 123.766 243.824C126.582 241.584 129.718 240.464 133.174 240.464C136.118 240.464 138.422 241.04 140.086 242.192C140.726 242.64 141.046 243.344 141.046 244.304L141.238 256.016C141.238 256.976 140.854 257.456 140.086 257.456C139.382 257.456 138.934 257.04 138.742 256.208C137.846 252.688 136.982 249.968 136.15 248.048C135.318 246.128 134.454 244.816 133.558 244.112C132.662 243.344 131.67 242.96 130.582 242.96C129.302 242.96 127.958 243.696 126.549 245.168C125.206 246.64 124.054 249.04 123.094 252.368C122.198 255.632 121.75 259.952 121.75 265.328C121.75 272.176 122.614 277.328 124.342 280.784C126.134 284.24 128.438 285.968 131.254 285.968C133.494 285.968 135.35 285.04 136.822 283.184C138.358 281.328 139.67 277.968 140.758 273.104C140.95 272.4 141.334 272.048 141.91 272.048C142.678 272.048 142.966 272.688 142.774 273.968C142.07 278.448 141.078 281.936 139.798 284.432C138.582 286.864 137.11 288.56 135.382 289.52C133.718 290.416 131.83 290.864 129.718 290.864ZM147.561 290C146.793 290 146.409 289.648 146.409 288.944C146.409 288.304 146.761 287.92 147.465 287.792L148.809 287.6C150.153 287.408 151.017 287.024 151.401 286.448C151.849 285.872 152.073 284.912 152.073 283.568V228.56C152.073 227.408 151.881 226.64 151.497 226.256C151.177 225.808 150.569 225.52 149.673 225.392L147.657 225.104C146.953 224.976 146.601 224.592 146.601 223.952C146.601 223.312 146.953 222.928 147.657 222.8C149.449 222.416 150.953 221.968 152.169 221.456C153.385 220.944 154.409 220.432 155.241 219.92C156.265 219.28 157.033 218.96 157.545 218.96C158.249 218.96 158.601 219.472 158.601 220.496V245.936C158.601 246.512 158.793 246.864 159.177 246.992C159.561 247.056 160.041 246.832 160.617 246.32C163.049 244.08 165.193 242.544 167.049 241.712C168.905 240.88 170.857 240.464 172.905 240.464C175.913 240.464 178.281 241.488 180.009 243.536C181.737 245.52 182.601 248.464 182.601 252.368V283.568C182.601 284.912 182.793 285.872 183.177 286.448C183.625 286.96 184.521 287.312 185.865 287.504L187.977 287.792C188.681 287.92 189.033 288.304 189.033 288.944C189.033 289.648 188.649 290 187.881 290H171.753C170.857 290 170.409 289.648 170.409 288.944C170.409 288.304 170.761 287.92 171.465 287.792L172.809 287.6C174.153 287.408 175.017 287.024 175.401 286.448C175.849 285.872 176.073 284.912 176.073 283.568V253.424C176.073 250.288 175.497 248.08 174.345 246.8C173.193 245.52 171.561 244.88 169.449 244.88C167.401 244.88 165.545 245.488 163.881 246.704C162.281 247.856 161.001 249.424 160.041 251.408C159.081 253.328 158.601 255.472 158.601 257.84V283.568C158.601 284.912 158.793 285.872 159.177 286.448C159.625 287.024 160.521 287.376 161.865 287.504L164.457 287.792C165.161 287.92 165.513 288.304 165.513 288.944C165.513 289.648 165.129 290 164.361 290H147.561ZM201.007 231.92C199.663 231.92 198.511 231.44 197.551 230.48C196.655 229.52 196.207 228.304 196.207 226.832C196.207 225.36 196.655 224.176 197.551 223.28C198.511 222.32 199.663 221.84 201.007 221.84C202.351 221.84 203.471 222.32 204.367 223.28C205.263 224.176 205.711 225.36 205.711 226.832C205.711 228.304 205.263 229.52 204.367 230.48C203.471 231.44 202.351 231.92 201.007 231.92ZM192.943 290C191.983 290 191.503 289.648 191.503 288.944C191.503 288.368 191.919 287.984 192.751 287.792L193.903 287.6C195.503 287.344 196.527 286.96 196.975 286.448C197.423 285.872 197.647 284.912 197.647 283.568V251.312C197.647 250.16 197.455 249.392 197.071 249.008C196.751 248.56 196.143 248.272 195.247 248.144L193.23 247.856C192.399 247.792 191.983 247.44 191.983 246.8C191.983 246.288 192.495 245.936 193.519 245.744C195.503 245.424 197.103 244.912 198.319 244.208C199.535 243.504 200.719 242.64 201.871 241.616C202.447 241.04 202.927 240.752 203.311 240.752C203.887 240.752 204.174 241.136 204.174 241.904V283.568C204.174 284.912 204.367 285.872 204.751 286.448C205.135 287.024 205.871 287.376 206.959 287.504L209.359 287.792C210.063 287.92 210.415 288.272 210.415 288.848C210.415 289.616 209.935 290 208.975 290H192.943ZM230.062 290.864C229.486 290.864 229.07 290.512 228.814 289.808L216.046 247.472C215.598 245.936 215.15 244.944 214.702 244.496C214.318 244.048 213.678 243.728 212.782 243.536L211.341 243.248C210.509 243.056 210.093 242.64 210.093 242C210.093 241.36 210.541 241.04 211.438 241.04H227.278C228.174 241.04 228.622 241.36 228.622 242C228.622 242.704 228.206 243.12 227.374 243.248L225.838 243.44C224.302 243.632 223.342 244.016 222.958 244.592C222.574 245.104 222.574 246.064 222.958 247.472L230.926 275.216C231.118 275.92 231.438 276.272 231.886 276.272C232.334 276.272 232.654 275.92 232.846 275.216L240.622 249.2C241.134 247.472 241.262 246.192 241.006 245.36C240.814 244.464 239.918 243.888 238.318 243.632L236.302 243.248C235.47 243.056 235.054 242.64 235.054 242C235.054 241.36 235.502 241.04 236.398 241.04H248.59C249.486 241.04 249.934 241.392 249.934 242.096C249.934 242.736 249.55 243.184 248.782 243.44L247.918 243.728C246.958 244.048 246.126 244.624 245.422 245.456C244.782 246.288 244.142 247.728 243.502 249.776L231.31 289.808C231.054 290.512 230.638 290.864 230.062 290.864ZM266.432 290.864C263.36 290.864 260.608 289.84 258.176 287.792C255.744 285.744 253.792 282.864 252.32 279.152C250.912 275.376 250.208 271.024 250.208 266.096C250.208 261.04 250.944 256.592 252.416 252.752C253.888 248.912 255.904 245.904 258.464 243.728C261.024 241.552 263.872 240.464 267.008 240.464C270.784 240.464 273.824 242.032 276.128 245.168C278.496 248.24 279.68 253.264 279.68 260.24C279.68 262.352 278.88 263.408 277.28 263.408H259.04C257.76 263.408 257.12 264.144 257.12 265.616C257.12 272.4 258.112 277.488 260.096 280.88C262.08 284.272 264.608 285.968 267.68 285.968C270.112 285.968 272.096 285.104 273.632 283.376C275.168 281.648 276.416 278.736 277.376 274.64C277.568 273.936 277.984 273.584 278.624 273.584C279.392 273.584 279.68 274.224 279.488 275.504C278.464 281.2 276.832 285.2 274.592 287.504C272.352 289.744 269.632 290.864 266.432 290.864ZM258.752 261.008H268.448C271.52 261.008 273.056 259.408 273.056 256.208C273.056 252.048 272.544 248.784 271.52 246.416C270.496 244.048 268.96 242.864 266.912 242.864C264.416 242.864 262.304 244.304 260.576 247.184C258.912 250.064 257.824 254.16 257.312 259.472C257.184 260.496 257.664 261.008 258.752 261.008ZM284.525 300.464C283.885 300.464 283.565 300.144 283.565 299.504V298.16C283.565 297.52 283.885 297.2 284.525 297.2H315.821C316.461 297.2 316.781 297.52 316.781 298.16V299.504C316.781 300.144 316.461 300.464 315.821 300.464H284.525ZM359.403 290.864C358.379 290.864 357.515 290.096 356.811 288.56L330.795 232.112C330.603 231.664 330.347 231.472 330.027 231.536C329.771 231.6 329.643 231.888 329.643 232.4V281.744C329.643 283.536 329.931 284.912 330.507 285.872C331.147 286.768 332.267 287.344 333.867 287.6L335.115 287.792C335.947 287.856 336.363 288.24 336.363 288.944C336.363 289.648 335.883 290 334.923 290H321.195C320.235 290 319.755 289.648 319.755 288.944C319.755 288.24 320.171 287.856 321.003 287.792L322.251 287.6C323.915 287.344 325.067 286.768 325.707 285.872C326.347 284.912 326.667 283.536 326.667 281.744V227.216C326.667 225.872 326.443 224.976 325.995 224.528C325.611 224.08 324.683 223.728 323.211 223.472L321.003 223.088C320.171 222.896 319.755 222.512 319.755 221.936C319.755 221.232 320.235 220.88 321.195 220.88H331.467C333.067 220.88 334.187 221.584 334.827 222.992L357.483 272.816C357.675 273.2 357.899 273.36 358.155 273.296C358.475 273.232 358.635 273.008 358.635 272.624V229.136C358.635 227.088 358.283 225.68 357.579 224.912C356.875 224.08 355.979 223.568 354.891 223.376L353.163 223.088C352.331 222.896 351.915 222.512 351.915 221.936C351.915 221.232 352.395 220.88 353.355 220.88H367.083C368.043 220.88 368.523 221.232 368.523 221.936C368.523 222.64 368.107 223.024 367.275 223.088L366.027 223.28C364.363 223.536 363.211 224.08 362.571 224.912C361.931 225.68 361.611 227.088 361.611 229.136V287.792C361.611 288.944 361.387 289.744 360.939 290.192C360.555 290.64 360.043 290.864 359.403 290.864ZM386.807 290.864C383.735 290.864 380.983 289.84 378.551 287.792C376.119 285.744 374.167 282.864 372.695 279.152C371.287 275.376 370.583 271.024 370.583 266.096C370.583 261.04 371.319 256.592 372.791 252.752C374.263 248.912 376.279 245.904 378.839 243.728C381.399 241.552 384.247 240.464 387.383 240.464C391.159 240.464 394.199 242.032 396.503 245.168C398.871 248.24 400.055 253.264 400.055 260.24C400.055 262.352 399.255 263.408 397.655 263.408H379.415C378.135 263.408 377.495 264.144 377.495 265.616C377.495 272.4 378.487 277.488 380.471 280.88C382.455 284.272 384.983 285.968 388.055 285.968C390.487 285.968 392.471 285.104 394.007 283.376C395.543 281.648 396.791 278.736 397.751 274.64C397.943 273.936 398.359 273.584 398.999 273.584C399.767 273.584 400.055 274.224 399.863 275.504C398.839 281.2 397.207 285.2 394.967 287.504C392.727 289.744 390.007 290.864 386.807 290.864ZM379.127 261.008H388.823C391.895 261.008 393.431 259.408 393.431 256.208C393.431 252.048 392.919 248.784 391.895 246.416C390.871 244.048 389.335 242.864 387.287 242.864C384.791 242.864 382.679 244.304 380.951 247.184C379.287 250.064 378.199 254.16 377.687 259.472C377.559 260.496 378.039 261.008 379.127 261.008ZM420.932 290.864C417.86 290.864 415.108 289.84 412.676 287.792C410.244 285.744 408.292 282.864 406.82 279.152C405.412 275.376 404.708 271.024 404.708 266.096C404.708 261.04 405.444 256.592 406.916 252.752C408.388 248.912 410.404 245.904 412.964 243.728C415.524 241.552 418.372 240.464 421.508 240.464C425.284 240.464 428.324 242.032 430.628 245.168C432.996 248.24 434.18 253.264 434.18 260.24C434.18 262.352 433.38 263.408 431.78 263.408H413.54C412.26 263.408 411.62 264.144 411.62 265.616C411.62 272.4 412.612 277.488 414.596 280.88C416.58 284.272 419.108 285.968 422.18 285.968C424.612 285.968 426.596 285.104 428.132 283.376C429.668 281.648 430.916 278.736 431.876 274.64C432.068 273.936 432.484 273.584 433.124 273.584C433.892 273.584 434.18 274.224 433.988 275.504C432.964 281.2 431.332 285.2 429.092 287.504C426.852 289.744 424.132 290.864 420.932 290.864ZM413.252 261.008H422.948C426.02 261.008 427.556 259.408 427.556 256.208C427.556 252.048 427.044 248.784 426.02 246.416C424.996 244.048 423.46 242.864 421.412 242.864C418.916 242.864 416.804 244.304 415.076 247.184C413.412 250.064 412.324 254.16 411.812 259.472C411.684 260.496 412.164 261.008 413.252 261.008ZM450.737 290.864C448.497 290.864 446.641 290.096 445.169 288.56C443.761 286.96 443.057 284.368 443.057 280.784V244.88C443.057 244.112 442.673 243.728 441.905 243.728H439.121C438.097 243.728 437.585 243.344 437.585 242.576C437.585 242.064 437.873 241.616 438.449 241.232C440.561 239.76 442.257 238.192 443.537 236.528C444.817 234.8 445.937 232.464 446.897 229.52C447.345 228.176 447.889 227.504 448.529 227.504C449.233 227.504 449.585 228.016 449.585 229.04V239.696C449.585 240.592 450.033 241.04 450.929 241.04H457.169C458.193 241.04 458.705 241.488 458.705 242.384C458.705 243.28 458.193 243.728 457.169 243.728H450.929C450.033 243.728 449.585 244.176 449.585 245.072V280.88C449.585 282.288 449.809 283.408 450.257 284.24C450.705 285.008 451.537 285.392 452.753 285.392C454.097 285.392 455.185 284.72 456.017 283.376C456.913 282.032 457.489 279.856 457.745 276.848C457.873 275.952 458.289 275.504 458.993 275.504C459.761 275.504 460.145 275.984 460.145 276.944C459.953 281.872 458.929 285.424 457.073 287.6C455.281 289.776 453.169 290.864 450.737 290.864Z" fill="white"/>
</g>
<defs>
<filter id="filter0_d_1362_2" x="135.29" y="33.5957" width="234.507" height="445" filterUnits="userSpaceOnUse" color-interpolation-filters="sRGB">
<feFlood flood-opacity="0" result="BackgroundImageFix"/>
<feColorMatrix in="SourceAlpha" type="matrix" values="0 0 0 0 0 0 0 0 0 0 0 0 0 0 0 0 0 0 127 0" result="hardAlpha"/>
<feOffset dy="4"/>
<feGaussianBlur stdDeviation="2"/>
<feComposite in2="hardAlpha" operator="out"/>
<feColorMatrix type="matrix" values="0 0 0 0 0 0 0 0 0 0 0 0 0 0 0 0 0 0 0.5 0"/>
<feBlend mode="normal" in2="BackgroundImageFix" result="effect1_dropShadow_1362_2"/>
<feBlend mode="normal" in="SourceGraphic" in2="effect1_dropShadow_1362_2" result="shape"/>
</filter>
<filter id="filter1_d_1362_2" x="19.5535" y="171.719" width="465.323" height="169.149" filterUnits="userSpaceOnUse" color-interpolation-filters="sRGB">
<feFlood flood-opacity="0" result="BackgroundImageFix"/>
<feColorMatrix in="SourceAlpha" type="matrix" values="0 0 0 0 0 0 0 0 0 0 0 0 0 0 0 0 0 0 127 0" result="hardAlpha"/>
<feOffset dy="4"/>
<feGaussianBlur stdDeviation="2"/>
<feComposite in2="hardAlpha" operator="out"/>
<feColorMatrix type="matrix" values="0 0 0 0 0 0 0 0 0 0 0 0 0 0 0 0 0 0 0.5 0"/>
<feBlend mode="normal" in2="BackgroundImageFix" result="effect1_dropShadow_1362_2"/>
<feBlend mode="normal" in="SourceGraphic" in2="effect1_dropShadow_1362_2" result="shape"/>
</filter>
<filter id="filter2_d_1362_2" x="37.8381" y="128.434" width="430.293" height="255.738" filterUnits="userSpaceOnUse" color-interpolation-filters="sRGB">
<feFlood flood-opacity="0" result="BackgroundImageFix"/>
<feColorMatrix in="SourceAlpha" type="matrix" values="0 0 0 0 0 0 0 0 0 0 0 0 0 0 0 0 0 0 127 0" result="hardAlpha"/>
<feOffset dy="4"/>
<feGaussianBlur stdDeviation="2"/>
<feComposite in2="hardAlpha" operator="out"/>
<feColorMatrix type="matrix" values="0 0 0 0 0 0 0 0 0 0 0 0 0 0 0 0 0 0 0.5 0"/>
<feBlend mode="normal" in2="BackgroundImageFix" result="effect1_dropShadow_1362_2"/>
<feBlend mode="normal" in="SourceGraphic" in2="effect1_dropShadow_1362_2" result="shape"/>
</filter>
<filter id="filter3_d_1362_2" x="32.272" y="218.96" width="431.873" height="89.5042" filterUnits="userSpaceOnUse" color-interpolation-filters="sRGB">
<feFlood flood-opacity="0" result="BackgroundImageFix"/>
<feColorMatrix in="SourceAlpha" type="matrix" values="0 0 0 0 0 0 0 0 0 0 0 0 0 0 0 0 0 0 127 0" result="hardAlpha"/>
<feOffset dy="4"/>
<feGaussianBlur stdDeviation="2"/>
<feComposite in2="hardAlpha" operator="out"/>
<feColorMatrix type="matrix" values="0 0 0 0 0 0 0 0 0 0 0 0 0 0 0 0 0 0 0.5 0"/>
<feBlend mode="normal" in2="BackgroundImageFix" result="effect1_dropShadow_1362_2"/>
<feBlend mode="normal" in="SourceGraphic" in2="effect1_dropShadow_1362_2" result="shape"/>
</filter>
</defs>
</svg>
