<svg width="285" height="210" viewBox="0 0 285 210" fill="none" xmlns="http://www.w3.org/2000/svg">
<path d="M1.808 118C1.168 118 0.848 117.787 0.848 117.36C0.848 116.933 1.14667 116.656 1.744 116.528L2.704 116.336C3.55733 116.165 4.19733 115.76 4.624 115.12C5.05067 114.437 5.41333 113.499 5.712 112.304L15.632 72.304C15.7173 71.8773 15.8453 71.6 16.016 71.472C16.2293 71.344 16.4213 71.28 16.592 71.28C16.8053 71.28 16.9973 71.344 17.168 71.472C17.3813 71.6 17.5307 71.8773 17.616 72.304L27.728 112.88C28.0267 114.075 28.368 114.907 28.752 115.376C29.136 115.845 29.7333 116.165 30.544 116.336L31.504 116.528C32.1013 116.656 32.4 116.933 32.4 117.36C32.4 117.787 32.08 118 31.44 118H20.496C19.8987 118 19.6 117.765 19.6 117.296C19.6 116.827 19.9627 116.571 20.688 116.528L21.904 116.4C22.6293 116.315 23.0773 116.08 23.248 115.696C23.4613 115.312 23.4613 114.651 23.248 113.712L20.816 103.792C20.56 102.683 19.856 102.128 18.704 102.128H11.984C10.8747 102.128 10.1707 102.683 9.872 103.792L7.696 112.368C7.056 114.8 7.696 116.144 9.616 116.4L10.576 116.528C11.3013 116.656 11.664 116.912 11.664 117.296C11.664 117.765 11.3653 118 10.768 118H1.808ZM11.792 100.208H18.832C19.5147 100.208 19.792 99.8453 19.664 99.12L15.568 81.968H15.248L10.96 99.12C10.832 99.8453 11.1093 100.208 11.792 100.208ZM41.106 89.456C42.8553 86.4693 44.9673 84.976 47.442 84.976C48.85 84.976 49.8953 85.4027 50.578 86.256C51.2607 87.0667 51.602 87.984 51.602 89.008C51.602 89.8187 51.3887 90.48 50.962 90.992C50.578 91.504 49.9593 91.76 49.106 91.76C48.4233 91.76 47.9113 91.6107 47.57 91.312C47.2713 90.9707 47.0153 90.5867 46.802 90.16C46.6313 89.7333 46.418 89.3707 46.162 89.072C45.906 88.7307 45.4793 88.56 44.882 88.56C44.114 88.56 43.3887 89.0293 42.706 89.968C42.0233 90.864 41.4473 92.08 40.978 93.616C40.5513 95.152 40.338 96.9013 40.338 98.864V113.712C40.338 114.608 40.466 115.248 40.722 115.632C41.0207 116.016 41.618 116.251 42.514 116.336L44.242 116.528C44.7113 116.613 44.946 116.848 44.946 117.232C44.946 117.744 44.626 118 43.986 118H33.17C32.53 118 32.21 117.765 32.21 117.296C32.21 116.912 32.4873 116.656 33.042 116.528L33.81 116.4C34.706 116.229 35.282 115.973 35.538 115.632C35.8367 115.248 35.986 114.608 35.986 113.712V92.208C35.986 91.44 35.858 90.928 35.602 90.672C35.3887 90.3733 34.9833 90.1813 34.386 90.096L33.042 89.904C32.4873 89.8613 32.21 89.6267 32.21 89.2C32.21 88.8587 32.5513 88.624 33.234 88.496C34.5567 88.2827 35.5593 87.9413 36.242 87.472C36.9673 87.0027 37.714 86.4267 38.482 85.744C38.866 85.36 39.186 85.168 39.442 85.168C39.826 85.168 40.018 85.424 40.018 85.936V89.392C40.018 89.6907 40.146 89.8827 40.402 89.968C40.658 90.0107 40.8927 89.84 41.106 89.456ZM63.145 118.576C61.2677 118.576 59.561 117.957 58.025 116.72C56.5317 115.44 55.337 113.627 54.441 111.28C53.545 108.933 53.097 106.139 53.097 102.896C53.097 99.2693 53.6303 96.112 54.697 93.424C55.8063 90.736 57.2997 88.6667 59.177 87.216C61.0543 85.7227 63.145 84.976 65.449 84.976C67.4117 84.976 68.9477 85.36 70.057 86.128C70.4837 86.4267 70.697 86.896 70.697 87.536L70.825 95.344C70.825 95.984 70.569 96.304 70.057 96.304C69.5877 96.304 69.289 96.0267 69.161 95.472C68.5637 93.1253 67.9877 91.312 67.433 90.032C66.8783 88.752 66.3023 87.8773 65.705 87.408C65.1077 86.896 64.4463 86.64 63.721 86.64C62.8677 86.64 61.9717 87.1307 61.033 88.112C60.137 89.0933 59.369 90.6933 58.729 92.912C58.1317 95.088 57.833 97.968 57.833 101.552C57.833 106.117 58.409 109.552 59.561 111.856C60.7557 114.16 62.2917 115.312 64.169 115.312C65.6623 115.312 66.8997 114.693 67.881 113.456C68.905 112.219 69.7797 109.979 70.505 106.736C70.633 106.267 70.889 106.032 71.273 106.032C71.785 106.032 71.977 106.459 71.849 107.312C71.3797 110.299 70.7183 112.624 69.865 114.288C69.0543 115.909 68.073 117.04 66.921 117.68C65.8117 118.277 64.553 118.576 63.145 118.576ZM75.0405 118C74.5285 118 74.2725 117.765 74.2725 117.296C74.2725 116.869 74.5072 116.613 74.9765 116.528L75.8725 116.4C76.7685 116.272 77.3445 116.016 77.6005 115.632C77.8992 115.248 78.0485 114.608 78.0485 113.712V77.04C78.0485 76.272 77.9205 75.76 77.6645 75.504C77.4512 75.2053 77.0458 75.0133 76.4485 74.928L75.1045 74.736C74.6352 74.6507 74.4005 74.3947 74.4005 73.968C74.4005 73.5413 74.6352 73.2853 75.1045 73.2C76.2992 72.944 77.3018 72.6453 78.1125 72.304C78.9232 71.9627 79.6058 71.6213 80.1605 71.28C80.8432 70.8533 81.3552 70.64 81.6965 70.64C82.1658 70.64 82.4005 70.9813 82.4005 71.664V88.624C82.4005 89.008 82.5285 89.2427 82.7845 89.328C83.0405 89.3707 83.3605 89.2213 83.7445 88.88C85.3658 87.3867 86.7952 86.3627 88.0325 85.808C89.2698 85.2533 90.5712 84.976 91.9365 84.976C93.9418 84.976 95.5205 85.6587 96.6725 87.024C97.8245 88.3467 98.4005 90.3093 98.4005 92.912V113.712C98.4005 114.608 98.5285 115.248 98.7845 115.632C99.0832 115.973 99.6805 116.208 100.577 116.336L101.985 116.528C102.454 116.613 102.689 116.869 102.689 117.296C102.689 117.765 102.433 118 101.921 118H91.1685C90.5712 118 90.2725 117.765 90.2725 117.296C90.2725 116.869 90.5072 116.613 90.9765 116.528L91.8725 116.4C92.7685 116.272 93.3445 116.016 93.6005 115.632C93.8992 115.248 94.0485 114.608 94.0485 113.712V93.616C94.0485 91.5253 93.6645 90.0533 92.8965 89.2C92.1285 88.3467 91.0405 87.92 89.6325 87.92C88.2672 87.92 87.0298 88.3253 85.9205 89.136C84.8538 89.904 84.0005 90.9493 83.3605 92.272C82.7205 93.552 82.4005 94.9813 82.4005 96.56V113.712C82.4005 114.608 82.5285 115.248 82.7845 115.632C83.0832 116.016 83.6805 116.251 84.5765 116.336L86.3045 116.528C86.7738 116.613 87.0085 116.869 87.0085 117.296C87.0085 117.765 86.7525 118 86.2405 118H75.0405ZM110.671 79.28C109.775 79.28 109.007 78.96 108.367 78.32C107.77 77.68 107.471 76.8693 107.471 75.888C107.471 74.9067 107.77 74.1173 108.367 73.52C109.007 72.88 109.775 72.56 110.671 72.56C111.567 72.56 112.314 72.88 112.911 73.52C113.508 74.1173 113.807 74.9067 113.807 75.888C113.807 76.8693 113.508 77.68 112.911 78.32C112.314 78.96 111.567 79.28 110.671 79.28ZM105.295 118C104.655 118 104.335 117.765 104.335 117.296C104.335 116.912 104.612 116.656 105.167 116.528L105.935 116.4C107.002 116.229 107.684 115.973 107.983 115.632C108.282 115.248 108.431 114.608 108.431 113.712V92.208C108.431 91.44 108.303 90.928 108.047 90.672C107.834 90.3733 107.428 90.1813 106.831 90.096L105.487 89.904C104.932 89.8613 104.655 89.6267 104.655 89.2C104.655 88.8587 104.996 88.624 105.679 88.496C107.002 88.2827 108.068 87.9413 108.879 87.472C109.69 87.0027 110.479 86.4267 111.247 85.744C111.631 85.36 111.951 85.168 112.207 85.168C112.591 85.168 112.783 85.424 112.783 85.936V113.712C112.783 114.608 112.911 115.248 113.167 115.632C113.423 116.016 113.914 116.251 114.639 116.336L116.239 116.528C116.708 116.613 116.943 116.848 116.943 117.232C116.943 117.744 116.623 118 115.983 118H105.295ZM130.041 118.576C129.657 118.576 129.38 118.341 129.209 117.872L120.697 89.648C120.398 88.624 120.1 87.9627 119.801 87.664C119.545 87.3653 119.118 87.152 118.521 87.024L117.561 86.832C117.006 86.704 116.729 86.4267 116.729 86C116.729 85.5733 117.028 85.36 117.625 85.36H128.185C128.782 85.36 129.081 85.5733 129.081 86C129.081 86.4693 128.804 86.7467 128.249 86.832L127.225 86.96C126.201 87.088 125.561 87.344 125.305 87.728C125.049 88.0693 125.049 88.7093 125.305 89.648L130.617 108.144C130.745 108.613 130.958 108.848 131.257 108.848C131.556 108.848 131.769 108.613 131.897 108.144L137.081 90.8C137.422 89.648 137.508 88.7947 137.337 88.24C137.209 87.6427 136.612 87.2587 135.545 87.088L134.201 86.832C133.646 86.704 133.369 86.4267 133.369 86C133.369 85.5733 133.668 85.36 134.265 85.36H142.393C142.99 85.36 143.289 85.5947 143.289 86.064C143.289 86.4907 143.033 86.7893 142.521 86.96L141.945 87.152C141.305 87.3653 140.75 87.7493 140.281 88.304C139.854 88.8587 139.428 89.8187 139.001 91.184L130.873 117.872C130.702 118.341 130.425 118.576 130.041 118.576ZM154.288 118.576C152.24 118.576 150.405 117.893 148.784 116.528C147.163 115.163 145.861 113.243 144.88 110.768C143.941 108.251 143.472 105.349 143.472 102.064C143.472 98.6933 143.963 95.728 144.944 93.168C145.925 90.608 147.269 88.6027 148.976 87.152C150.683 85.7013 152.581 84.976 154.672 84.976C157.189 84.976 159.216 86.0213 160.752 88.112C162.331 90.16 163.12 93.5093 163.12 98.16C163.12 99.568 162.587 100.272 161.52 100.272H149.36C148.507 100.272 148.08 100.763 148.08 101.744C148.08 106.267 148.741 109.659 150.064 111.92C151.387 114.181 153.072 115.312 155.12 115.312C156.741 115.312 158.064 114.736 159.088 113.584C160.112 112.432 160.944 110.491 161.584 107.76C161.712 107.291 161.989 107.056 162.416 107.056C162.928 107.056 163.12 107.483 162.992 108.336C162.309 112.133 161.221 114.8 159.728 116.336C158.235 117.829 156.421 118.576 154.288 118.576ZM149.168 98.672H155.632C157.68 98.672 158.704 97.6053 158.704 95.472C158.704 92.6987 158.363 90.5227 157.68 88.944C156.997 87.3653 155.973 86.576 154.608 86.576C152.944 86.576 151.536 87.536 150.384 89.456C149.275 91.376 148.549 94.1067 148.208 97.648C148.123 98.3307 148.443 98.672 149.168 98.672ZM166.35 124.976C165.923 124.976 165.71 124.763 165.71 124.336V123.44C165.71 123.013 165.923 122.8 166.35 122.8H187.214C187.641 122.8 187.854 123.013 187.854 123.44V124.336C187.854 124.763 187.641 124.976 187.214 124.976H166.35ZM216.269 118.576C215.586 118.576 215.01 118.064 214.541 117.04L197.197 79.408C197.069 79.1093 196.898 78.9813 196.685 79.024C196.514 79.0667 196.429 79.2587 196.429 79.6V112.496C196.429 113.691 196.621 114.608 197.005 115.248C197.431 115.845 198.178 116.229 199.245 116.4L200.077 116.528C200.631 116.571 200.909 116.827 200.909 117.296C200.909 117.765 200.589 118 199.949 118H190.797C190.157 118 189.837 117.765 189.837 117.296C189.837 116.827 190.114 116.571 190.669 116.528L191.501 116.4C192.61 116.229 193.378 115.845 193.805 115.248C194.231 114.608 194.445 113.691 194.445 112.496V76.144C194.445 75.248 194.295 74.6507 193.997 74.352C193.741 74.0533 193.122 73.8187 192.141 73.648L190.669 73.392C190.114 73.264 189.837 73.008 189.837 72.624C189.837 72.1547 190.157 71.92 190.797 71.92H197.645C198.711 71.92 199.458 72.3893 199.885 73.328L214.989 106.544C215.117 106.8 215.266 106.907 215.437 106.864C215.65 106.821 215.757 106.672 215.757 106.416V77.424C215.757 76.0587 215.522 75.12 215.053 74.608C214.583 74.0533 213.986 73.712 213.261 73.584L212.109 73.392C211.554 73.264 211.277 73.008 211.277 72.624C211.277 72.1547 211.597 71.92 212.237 71.92H221.389C222.029 71.92 222.349 72.1547 222.349 72.624C222.349 73.0933 222.071 73.3493 221.517 73.392L220.685 73.52C219.575 73.6907 218.807 74.0533 218.381 74.608C217.954 75.12 217.741 76.0587 217.741 77.424V116.528C217.741 117.296 217.591 117.829 217.293 118.128C217.037 118.427 216.695 118.576 216.269 118.576ZM234.538 118.576C232.49 118.576 230.655 117.893 229.034 116.528C227.413 115.163 226.111 113.243 225.13 110.768C224.191 108.251 223.722 105.349 223.722 102.064C223.722 98.6933 224.213 95.728 225.194 93.168C226.175 90.608 227.519 88.6027 229.226 87.152C230.933 85.7013 232.831 84.976 234.922 84.976C237.439 84.976 239.466 86.0213 241.002 88.112C242.581 90.16 243.37 93.5093 243.37 98.16C243.37 99.568 242.837 100.272 241.77 100.272H229.61C228.757 100.272 228.33 100.763 228.33 101.744C228.33 106.267 228.991 109.659 230.314 111.92C231.637 114.181 233.322 115.312 235.37 115.312C236.991 115.312 238.314 114.736 239.338 113.584C240.362 112.432 241.194 110.491 241.834 107.76C241.962 107.291 242.239 107.056 242.666 107.056C243.178 107.056 243.37 107.483 243.242 108.336C242.559 112.133 241.471 114.8 239.978 116.336C238.485 117.829 236.671 118.576 234.538 118.576ZM229.418 98.672H235.882C237.93 98.672 238.954 97.6053 238.954 95.472C238.954 92.6987 238.613 90.5227 237.93 88.944C237.247 87.3653 236.223 86.576 234.858 86.576C233.194 86.576 231.786 87.536 230.634 89.456C229.525 91.376 228.799 94.1067 228.458 97.648C228.373 98.3307 228.693 98.672 229.418 98.672ZM257.288 118.576C255.24 118.576 253.405 117.893 251.784 116.528C250.163 115.163 248.861 113.243 247.88 110.768C246.941 108.251 246.472 105.349 246.472 102.064C246.472 98.6933 246.963 95.728 247.944 93.168C248.925 90.608 250.269 88.6027 251.976 87.152C253.683 85.7013 255.581 84.976 257.672 84.976C260.189 84.976 262.216 86.0213 263.752 88.112C265.331 90.16 266.12 93.5093 266.12 98.16C266.12 99.568 265.587 100.272 264.52 100.272H252.36C251.507 100.272 251.08 100.763 251.08 101.744C251.08 106.267 251.741 109.659 253.064 111.92C254.387 114.181 256.072 115.312 258.12 115.312C259.741 115.312 261.064 114.736 262.088 113.584C263.112 112.432 263.944 110.491 264.584 107.76C264.712 107.291 264.989 107.056 265.416 107.056C265.928 107.056 266.12 107.483 265.992 108.336C265.309 112.133 264.221 114.8 262.728 116.336C261.235 117.829 259.421 118.576 257.288 118.576ZM252.168 98.672H258.632C260.68 98.672 261.704 97.6053 261.704 95.472C261.704 92.6987 261.363 90.5227 260.68 88.944C259.997 87.3653 258.973 86.576 257.608 86.576C255.944 86.576 254.536 87.536 253.384 89.456C252.275 91.376 251.549 94.1067 251.208 97.648C251.123 98.3307 251.443 98.672 252.168 98.672ZM277.158 118.576C275.665 118.576 274.427 118.064 273.446 117.04C272.507 115.973 272.038 114.245 272.038 111.856V87.92C272.038 87.408 271.782 87.152 271.27 87.152H269.414C268.731 87.152 268.39 86.896 268.39 86.384C268.39 86.0427 268.582 85.744 268.966 85.488C270.374 84.5067 271.505 83.4613 272.358 82.352C273.211 81.2 273.958 79.6427 274.598 77.68C274.897 76.784 275.259 76.336 275.686 76.336C276.155 76.336 276.39 76.6773 276.39 77.36V84.464C276.39 85.0613 276.689 85.36 277.286 85.36H281.446C282.129 85.36 282.47 85.6587 282.47 86.256C282.47 86.8533 282.129 87.152 281.446 87.152H277.286C276.689 87.152 276.39 87.4507 276.39 88.048V111.92C276.39 112.859 276.539 113.605 276.838 114.16C277.137 114.672 277.691 114.928 278.502 114.928C279.398 114.928 280.123 114.48 280.678 113.584C281.275 112.688 281.659 111.237 281.83 109.232C281.915 108.635 282.193 108.336 282.662 108.336C283.174 108.336 283.43 108.656 283.43 109.296C283.302 112.581 282.619 114.949 281.382 116.4C280.187 117.851 278.779 118.576 277.158 118.576Z" fill="white"/>
<path d="M73.7598 29.5758C87.0923 21.6428 104.186 22.7702 121.1 31.1351C138.009 39.4975 154.673 55.0682 167.057 75.8808C179.441 96.6936 185.176 118.768 184.459 137.618C183.741 156.474 176.577 172.034 163.244 179.967C149.912 187.9 132.819 186.774 115.905 178.409C98.9956 170.046 82.3309 154.475 69.9471 133.662C57.5634 112.85 51.8288 90.7754 52.546 71.9254C53.2635 53.0694 60.4273 37.5088 73.7598 29.5758Z" stroke="#8E90FF"/>
<path d="M183 122.801H185V124.977H183V122.801Z" fill="white"/>
</svg>
